#!OML:ASF E:\Steps\Project 1\Capture day 1\Session 2\Subject.ASF
:FULLY-SPECIFIED
:DEGREES
310
root 12.2627 17.1183 10.4563 -149.444 5.55178 178.992
lowerback -21.6007 -1.10275 -5.45557
upperback 2.0202 -0.0611631 0.730384
thorax 14.5588 -0.48639 3.94911
lowerneck -0.958191 -2.32192 -0.534053
upperneck 19.5174 -2.2275 2.63589
head 6.0936 -0.420103 0.857642
rclavicle -2.48481e-015 -5.56597e-015
rhumerus -41.2652 -7.24401 -74.8986
rradius 56.8045
rwrist -10.5063
rhand -6.33503 -49.8735
rfingers 7.12502
rthumb 19.5103 281.085
lclavicle -2.48481e-015 -5.56597e-015
lhumerus -34.8809 -2.50284 79.8745
lradius 36.2527
lwrist 2.64653
lhand -21.126 -11.9915
lfingers 7.12502
lthumb 5.25268 17.9234
rfemur -30.1861 4.24035 7.29312
rtibia 69.6684
rfoot -10.2375 -5.38933
rtoes -30.5436
lfemur -43.7098 -6.20914 -20.0805
ltibia 20.0366
lfoot -5.5083 0.161933
ltoes -28.7949
311
root 12.2415 17.1266 10.4185 -149.544 5.59826 179.043
lowerback -21.5973 -1.05184 -5.36255
upperback 2.12215 -0.0110637 0.665972
thorax 14.6715 -0.460161 3.83859
lowerneck -1.07989 -2.30564 -0.374407
upperneck 19.5301 -2.21049 2.5462
head 6.11541 -0.408978 0.802314
rclavicle 6.48535e-015 -2.05494e-014
rhumerus -41.2663 -7.62388 -74.8928
rradius 56.2266
rwrist -10.1348
rhand -6.32969 -50.2855
rfingers 7.12502
rthumb 19.5154 280.674
lclavicle 6.48535e-015 -2.05494e-014
lhumerus -34.4822 -2.37831 79.8132
lradius 35.9999
lwrist 2.53506
lhand -21.2545 -11.8747
lfingers 7.12502
lthumb 5.1286 18.0432
rfemur -30.8082 4.0634 7.63519
rtibia 69.5707
rfoot -10.5958 -5.59499
rtoes -30.7382
lfemur -43.2595 -6.15311 -20.1826
ltibia 19.7012
lfoot -5.54795 -0.0534741
ltoes -27.2041
312
root 12.2199 17.1353 10.3815 -149.684 5.67467 179.037
lowerback -21.5639 -1.05111 -5.32413
upperback 2.18713 -0.0153108 0.609178
thorax 14.7294 -0.459975 3.74946
lowerneck -1.18524 -2.28024 -0.296635
upperneck 19.7865 -2.14264 2.43691
head 6.21197 -0.366056 0.759522
rclavicle 5.05814e-015 -1.41044e-014
rhumerus -41.459 -7.80598 -74.889
rradius 55.844
rwrist -9.83026
rhand -6.34098 -50.3234
rfingers 7.12502
rthumb 19.5045 280.635
lclavicle 5.05814e-015 -1.41044e-014
lhumerus -34.3905 -2.2463 79.7355
lradius 36.0743
lwrist 2.6127
lhand -21.1913 -11.7732
lfingers 7.12502
lthumb 5.18967 18.1432
rfemur -31.818 4.41359 7.98676
rtibia 70.2479
rfoot -11.6346 -5.89764
rtoes -31.8415
lfemur -42.7102 -6.13763 -20.3518
ltibia 19.2292
lfoot -5.57084 -0.101721
ltoes -26.709
313
root 12.2008 17.1408 10.3537 -149.653 5.77493 178.895
lowerback -21.6073 -1.12425 -5.45143
upperback 2.16282 -0.0632668 0.535924
thorax 14.7325 -0.486324 3.72249
lowerneck -1.29207 -2.26182 -0.26356
upperneck 20.044 -2.09309 2.39583
head 6.31096 -0.330411 0.74495
rclavicle -9.02607e-015 -9.61621e-015
rhumerus -41.739 -7.84483 -74.9209
rradius 55.5195
rwrist -9.58144
rhand -6.57576 -50.0184
rfingers 7.12502
rthumb 19.2788 280.917
lclavicle -9.02607e-015 -9.61621e-015
lhumerus -34.3492 -2.11509 79.6456
lradius 36.1782
lwrist 2.83769
lhand -21.2262 -11.9918
lfingers 7.12502
lthumb 5.15597 17.9254
rfemur -33.0038 4.42037 8.13289
rtibia 70.6957
rfoot -12.7844 -6.05034
rtoes -33.9775
lfemur -42.4316 -6.12178 -20.66
ltibia 18.7906
lfoot -5.46006 -0.215159
ltoes -26.3673
314
root 12.1811 17.1452 10.3267 -149.584 5.86646 178.808
lowerback -21.6571 -1.15248 -5.53728
upperback 2.12419 -0.0633524 0.473708
thorax 14.7165 -0.487105 3.70065
lowerneck -1.31955 -2.29705 -0.175579
upperneck 20.155 -2.13095 2.3526
head 6.35026 -0.339764 0.714877
rclavicle 7.19352e-015 2.33572e-015
rhumerus -41.9028 -7.98497 -74.9054
rradius 55.03
rwrist -9.35465
rhand -6.5646 -49.7888
rfingers 7.12502
rthumb 19.2895 281.148
lclavicle 7.19352e-015 2.33572e-015
lhumerus -34.2906 -2.13261 79.6542
lradius 36.2043
lwrist 3.1508
lhand -21.3892 -12.0483
lfingers 7.12502
lthumb 4.99851 17.8727
rfemur -34.1507 4.38921 8.3054
rtibia 70.8906
rfoot -13.7335 -6.18293
rtoes -33.4185
lfemur -42.2151 -6.05368 -20.9267
ltibia 18.412
lfoot -5.32007 -0.36613
ltoes -26.1103
315
root 12.1612 17.1532 10.2945 -149.709 5.90639 178.793
lowerback -21.564 -1.16168 -5.5568
upperback 2.16667 -0.07742 0.470385
thorax 14.7141 -0.496816 3.70239
lowerneck -1.16945 -2.19177 -0.135637
upperneck 19.9521 -1.98621 2.27865
head 6.25631 -0.280987 0.692493
rclavicle 7.03201e-015 1.88845e-015
rhumerus -41.8418 -8.13357 -74.8055
rradius 54.3203
rwrist -9.08651
rhand -6.35427 -49.7435
rfingers 7.12502
rthumb 19.4918 281.213
lclavicle 7.03201e-015 1.88845e-015
lhumerus -34.2255 -2.09653 79.7267
lradius 36.2197
lwrist 3.47821
lhand -21.5604 -12.2002
lfingers 7.12502
lthumb 4.83327 17.7247
rfemur -34.8962 4.64217 8.61762
rtibia 70.7394
rfoot -14.4743 -6.38369
rtoes -30.7971
lfemur -41.7672 -6.1205 -21.0489
ltibia 18.0703
lfoot -5.33718 -0.333572
ltoes -25.9907
316
root 12.1432 17.1627 10.2652 -149.887 5.96612 178.781
lowerback -21.5155 -1.2094 -5.54709
upperback 2.2644 -0.149846 0.477026
thorax 14.8103 -0.53621 3.67948
lowerneck -1.35777 -2.22653 -0.315459
upperneck 20.1878 -2.03462 2.39725
head 6.368 -0.300946 0.758019
rclavicle -4.11236e-015 2.40281e-014
rhumerus -41.723 -8.13927 -74.7506
rradius 53.6248
rwrist -8.83823
rhand -6.16025 -49.7803
rfingers 7.12502
rthumb 19.6783 281.196
lclavicle -4.11236e-015 2.40281e-014
lhumerus -34.1585 -1.83148 79.7316
lradius 36.3358
lwrist 3.545
lhand -21.716 -12.2002
lfingers 7.12502
lthumb 4.68297 17.728
rfemur -35.5714 4.87522 8.96181
rtibia 70.4009
rfoot -15.1752 -6.58368
rtoes -31.1952
lfemur -41.2985 -6.24953 -21.1139
ltibia 17.7707
lfoot -5.41752 -0.208588
ltoes -25.5582
